<?xml version="1.0" encoding="utf-8"?>
<!-- Generator: Adobe Illustrator 22.1.0, SVG Export Plug-In . SVG Version: 6.00 Build 0)  -->
<svg version="1.2" baseProfile="tiny" id="Layer_1" xmlns="http://www.w3.org/2000/svg" xmlns:xlink="http://www.w3.org/1999/xlink"
	 x="0px" y="0px" viewBox="0 0 216 216" xml:space="preserve">
<g>
	<rect id="Rectangle_65_" fill="none" width="216" height="216"/>
	<g>
		<path fill="#039be5" d="M188.7,81.6c-2.6-1.3-5.3-2.6-7.9-3.8c-6.3-3-12.6-6.1-18.9-9.1c-7.6-3.7-15.2-7.3-22.8-11
			c-6.6-3.2-13.1-6.4-19.7-9.5c-3.1-1.5-6.2-3.1-9.4-4.5c-1.4-0.7-2.7-0.6-4.1,0c-0.3,0.2-0.7,0.3-1,0.5c-1.6,0.8-3.2,1.6-4.9,2.4
			c-5.9,2.9-11.9,5.7-17.8,8.6c-7.6,3.7-15.2,7.3-22.8,11c-6.8,3.3-13.7,6.6-20.5,9.9c-3.7,1.8-7.5,3.6-11.2,5.4
			c-0.2,0.1-0.3,0.2-0.5,0.2c-2.5,1.2-2.5,5.4,0,6.6c5.7,2.7,11.3,5.5,16.9,8.2c3.2,1.5,6.3,3.1,9.5,4.6c5.8,2.8,11.6,5.6,17.3,8.4
			c7.4,3.6,14.9,7.2,22.4,10.8c4.2,2,8.3,4.1,12.5,6c1.5,0.7,2.7,0.7,4.2,0c0.5-0.2,1-0.5,1.4-0.7c2.2-1.1,4.4-2.1,6.6-3.2
			c7.1-3.4,14.2-6.9,21.3-10.3c6.6-3.2,13.2-6.4,19.9-9.6c2.6-1.3,5.3-2.5,7.9-3.8c6.6-3.2,13.3-6.4,19.9-9.6
			c0.5-0.2,1.1-0.5,1.6-0.8c0.1,0,0.2-0.1,0.2-0.2c0.5-0.3,0.9-0.7,1.2-1.2C191,85.1,190.6,82.6,188.7,81.6z M169.6,89.9
			c-3.3,1.6-6.5,3.1-9.7,4.7c-5.9,2.8-11.8,5.7-17.6,8.5c-7.6,3.7-15.3,7.4-22.9,11.1c-3.8,1.8-11.5,5.5-11.5,5.5s-5.9-2.9-8.7-4.3
			c-7.5-3.6-15-7.3-22.5-10.9c-6.4-3.1-12.7-6.2-19.1-9.2c-2.9-1.4-5.7-2.8-8.6-4.1c-4.4-2.1-13.2-6.4-13.2-6.4s14.3-6.6,20.7-9.7
			c7.8-3.8,15.6-7.5,23.4-11.3c6.7-3.3,13.4-6.5,20.2-9.7c2.6-1.3,8-3.8,8-3.8s3.4,1.6,6.1,2.9c6.4,3.1,12.9,6.2,19.3,9.3
			c7.8,3.8,15.6,7.5,23.4,11.3c6.7,3.3,13.4,6.5,20.2,9.7c0.8,0.4,1.9,0.9,3,1.5c0,0,0,0-0.1,0C176.5,86.6,173,88.3,169.6,89.9z"/>
		<path fill="#039be5" d="M158.8,108.8c-1.9,0.1-3.6,1.5-3.6,3.5h0v11.4v18.2v1.9c-5.2,2.4-10.3,4.7-15.5,7.1
			c-9.1,4.2-18.2,8.4-27.3,12.5c-1.5,0.7-3,1.4-4.5,2.1c-5.2-2.4-10.3-4.7-15.5-7.1c-9.1-4.2-18.2-8.4-27.3-12.5
			c-1.5-0.7-3-1.4-4.5-2.1v-9.1v-18.2v-4.2c0-1.9-1.6-3.6-3.5-3.5c-1.9,0.1-3.5,1.6-3.5,3.5v11.4v18.2v4.2c0,1.2,0.7,2.6,1.8,3.1
			c5.8,2.7,11.6,5.3,17.4,8c9.1,4.2,18.2,8.4,27.4,12.6c2,0.9,4,1.9,6,2.8c1.3,0.6,2.4,0.6,3.7,0c0.2-0.1,0.4-0.2,0.6-0.3
			c1.1-0.5,2.1-1,3.1-1.4c8.7-4,17.4-8,26.2-12c6.8-3.1,13.7-6.3,20.5-9.4c0.1-0.1,0.2-0.1,0.4-0.2c1.1-0.5,1.8-1.9,1.8-3.1v-11.4
			v-18.2v-4.2C162.3,110.5,160.7,108.7,158.8,108.8z"/>
		<path fill="#039be5" d="M177.5,104.8v28.1v4c0,3,2.5,5.9,5.5,5.7c3-0.1,5.5-2.5,5.5-5.7v-28.1v-4c0-3-2.5-5.9-5.5-5.7
			C180,99.2,177.5,101.6,177.5,104.8z"/>
	</g>
</g>
</svg>
